<svg version="1.2" xmlns="http://www.w3.org/2000/svg" viewBox="0 0 1980 1080" width="1980" height="1080">
	<title>Proiect nou</title>
	<style>
		.s0 { fill: #000000 } 
	</style>
	<path id="BIBLIOTECA" class="s0" aria-label="BIBLIOTECA"  d="m325.7 544h-39.5v66.7h39.5q19.9 0 29.5-8.1 9.6-8.3 9.6-25.3 0-17.1-9.6-25.2-9.6-8.1-29.5-8.1zm-3-75h-36.5v54.9h36.5q18.1 0 26.8-6.7 9-6.8 9-20.7 0-13.8-9-20.7-8.7-6.8-26.8-6.8zm-61.2 162v-182.3h63q28.2 0 43.5 11.8 15.2 11.7 15.2 33.3 0 16.7-7.8 26.6-7.8 9.9-22.9 12.3 18.2 3.9 28.2 16.4 10.1 12.3 10.1 30.9 0 24.4-16.6 37.7-16.6 13.3-47.2 13.3zm171.5 0v-182.3h24.6v182.3zm138-87h-39.6v66.7h39.6q19.9 0 29.4-8.1 9.6-8.3 9.6-25.3 0-17.1-9.6-25.2-9.5-8.1-29.4-8.1zm-3.1-75h-36.5v54.9h36.5q18.1 0 26.9-6.7 8.9-6.8 8.9-20.7 0-13.8-8.9-20.7-8.8-6.8-26.9-6.8zm-61.1 162v-182.3h63q28.1 0 43.4 11.8 15.3 11.7 15.3 33.3 0 16.7-7.8 26.6-7.9 9.9-23 12.3 18.2 3.9 28.2 16.4 10.1 12.3 10.1 30.9 0 24.4-16.6 37.7-16.6 13.3-47.2 13.3zm171.5 0v-182.3h24.7v161.5h88.7v20.8zm139.3 0v-182.3h24.6v182.3zm147.8-165.5q-26.9 0-42.8 20-15.7 20-15.7 54.6 0 34.4 15.7 54.4 15.9 20 42.8 20 26.8 0 42.4-20 15.8-20 15.8-54.4 0-34.6-15.8-54.6-15.6-20-42.4-20zm0-20q38.3 0 61.2 25.7 23 25.6 23 68.9 0 43-23 68.8-22.9 25.6-61.2 25.6-38.5 0-61.6-25.6-22.9-25.6-22.9-68.8 0-43.3 22.9-68.9 23.1-25.7 61.6-25.7zm97.5 24v-20.8h154.2v20.8h-64.7v161.5h-24.8v-161.5zm178 161.5v-182.3h115.2v20.8h-90.6v54h86.8v20.7h-86.8v66h92.8v20.8zm294.4-168.2v26q-12.4-11.6-26.6-17.3-14-5.8-29.9-5.8-31.2 0-47.8 19.2-16.6 19-16.6 55.2 0 36 16.6 55.1 16.6 19.1 47.8 19.1 15.9 0 29.9-5.8 14.2-5.7 26.6-17.3v25.8q-12.9 8.8-27.4 13.1-14.4 4.4-30.6 4.4-41.3 0-65.1-25.2-23.8-25.4-23.8-69.2 0-44 23.8-69.3 23.8-25.3 65.1-25.3 16.4 0 30.8 4.3 14.5 4.3 27.2 13zm132.6 100.9l-33.6-90.7-33.4 90.7zm-117.1 67.3l69.6-182.3h27.9l69.5 182.3h-25.6l-16.6-46.8h-82.2l-16.6 46.8z"/>
</svg>